<?xml version="1.0" standalone="no"?><!DOCTYPE svg PUBLIC "-//W3C//DTD SVG 1.1//EN" "http://www.w3.org/Graphics/SVG/1.1/DTD/svg11.dtd"><svg t="1755087005777" class="icon" viewBox="0 0 1024 1024" version="1.1" xmlns="http://www.w3.org/2000/svg" p-id="6343" xmlns:xlink="http://www.w3.org/1999/xlink" width="200" height="200"><path d="M450.133333 934.4c-8.533333 0-17.066667-2.133333-23.466666-4.266667-61.866667-17.066667-381.866667-85.333333-211.2-514.133333 0 0 29.866667 96 83.2 96 12.8-202.666667 217.6-243.2 128-465.066667 0 0 238.933333 55.466667 268.8 337.066667 0 0 34.133333-89.6 102.4-98.133333 0 0-21.333333 49.066667 0 123.733333 0 0 200.533333 364.8-160 514.133333 0 0-21.333333 8.533333-46.933334 12.8 166.4-168.533333-96-341.333333-96-341.333333 10.666667 89.6-211.2 194.133333-44.8 339.2z" fill="#fa6823" p-id="6344"></path></svg>