<?xml version="1.0" standalone="no"?><!DOCTYPE svg PUBLIC "-//W3C//DTD SVG 1.1//EN" "http://www.w3.org/Graphics/SVG/1.1/DTD/svg11.dtd"><svg height="1024" node-id="1" sillyvg="true" template-height="1024" template-width="1024" version="1.1" viewBox="0 0 1024 1024" width="1024" xmlns="http://www.w3.org/2000/svg" xmlns:xlink="http://www.w3.org/1999/xlink"><defs node-id="44"><linearGradient gradientUnits="objectBoundingBox" id="linearGradient-1" node-id="5" spreadMethod="pad" x1="0.5" x2="0.5" y1="0" y2="0.6307759"><stop offset="0" stop-color="#ff9500" stop-opacity="0.39733204"></stop><stop offset="0.649557" stop-color="#ff9200" stop-opacity="0.06616979"></stop><stop offset="1" stop-color="#ff9000" stop-opacity="0"></stop></linearGradient><linearGradient gradientUnits="objectBoundingBox" id="linearGradient-2" node-id="9" spreadMethod="pad" x1="0.5" x2="0.5" y1="0" y2="1"><stop offset="0" stop-color="#ffc065"></stop><stop offset="1" stop-color="#ff8c35"></stop></linearGradient><linearGradient gradientUnits="objectBoundingBox" id="linearGradient-3" node-id="12" spreadMethod="pad" x1="0.5" x2="0.5" y1="0" y2="1"><stop offset="0" stop-color="#ffc065"></stop><stop offset="1" stop-color="#ff8c35"></stop></linearGradient></defs><path d="M 0.00 0.00 L 1024.00 0.00 L 1024.00 1024.00 L 0.00 1024.00 Z" fill="#ffffff" fill-rule="evenodd" node-id="68" stroke="none" target-height="1024" target-width="1024" target-x="0" target-y="0"></path><g node-id="70"><path d="M 0.00 0.00 L 1024.00 0.00 L 1024.00 1024.00 L 0.00 1024.00 Z" fill="none" group-id="1" id="矩形" node-id="18" stroke="none" target-height="1024" target-width="1024" target-x="0" target-y="0"></path><g node-id="71"><path d="M 862.00 735.00 C 862.00 817.84 705.30 885.00 512.00 885.00 C 318.70 885.00 162.00 817.84 162.00 735.00 C 162.00 652.16 318.70 585.00 512.00 585.00 C 705.30 585.00 862.00 652.16 862.00 735.00 Z" fill="url(#linearGradient-1)" fill-opacity="0.5" fill-rule="evenodd" group-id="1,2" id="椭圆形" node-id="19" stroke="none" target-height="300" target-width="700" target-x="162" target-y="585"></path></g><g node-id="72"><g node-id="76"><path d="M 720.46 647.68 C 735.57 652.01 760.67 610.89 780.62 546.07 C 800.56 481.25 801.89 438.90 786.78 434.57 C 771.67 430.24 726.09 467.80 708.64 528.62 C 691.19 589.43 705.34 643.35 720.46 647.68 Z" fill="#ffdbad" fill-rule="evenodd" group-id="1,3,7" id="椭圆形" node-id="21" stroke="none" target-height="221.7703" target-width="110.70679" target-x="691.18524" target-y="430.23624"></path></g><g node-id="77"><path d="M 773.30 464.85 C 750.10 502.81 735.18 533.28 728.54 556.26 C 721.90 579.25 719.20 609.72 720.46 647.68" fill="none" group-id="1,3,8" id="路径-42" node-id="22" stroke="#ffffff" stroke-linecap="butt" stroke-opacity="0.8" stroke-width="2" target-height="182.8237" target-width="54.0943" target-x="719.20135" target-y="464.85245"></path></g><g node-id="78"><path d="M 720.46 647.68 C 711.52 641.66 727.90 618.93 758.48 584.20 C 789.05 549.47 805.87 543.45 814.80 549.47 C 823.74 555.49 818.79 589.65 792.97 619.53 C 767.15 649.41 729.39 653.70 720.46 647.68 Z" fill="#ffb76a" fill-rule="evenodd" group-id="1,3,9" id="椭圆形" node-id="23" stroke="none" target-height="110.24524" target-width="112.21051" target-x="711.525" target-y="543.4502"></path></g><path d="M 796.87 578.96 C 786.72 594.58 775.51 608.72 763.24 621.37 C 750.97 634.02 737.85 642.79 723.89 647.68" fill="none" group-id="1,3,10" id="路径-43" node-id="24" stroke="#ffffff" stroke-linecap="butt" stroke-opacity="0.8" stroke-width="2" target-height="68.71716" target-width="72.98462" target-x="723.8871" target-y="578.959"></path></g><g node-id="73"><g node-id="80"><path d="M 297.00 340.00 L 638.00 340.00 L 638.00 681.00 L 297.00 681.00 Z" fill="#000000" fill-opacity="0" fill-rule="nonzero" group-id="1,4,11" id="矩形" node-id="26" stroke="none" target-height="341" target-width="341" target-x="297" target-y="340"></path></g><path d="M 563.41 374.10 L 390.77 374.10 C 358.81 374.10 331.10 401.81 331.10 433.77 L 331.10 553.12 C 331.10 585.09 358.81 612.80 390.77 612.80 L 397.17 612.80 C 397.17 612.80 397.17 614.93 399.30 614.93 L 422.74 640.51 C 427.01 644.77 433.40 644.77 435.53 640.51 L 456.84 617.06 L 458.98 614.93 L 563.41 614.93 C 595.38 614.93 623.08 587.23 623.08 555.26 L 623.08 433.77 C 623.08 401.81 595.38 374.10 563.41 374.10 Z" fill="url(#linearGradient-2)" fill-rule="nonzero" group-id="1,4" id="形状" node-id="27" stroke="none" target-height="270.66873" target-width="291.98123" target-x="331.1" target-y="374.1"></path><path d="M 395.04 516.89 C 382.25 516.89 373.73 506.24 373.73 493.45 C 373.73 480.66 384.38 470.01 397.17 470.01 C 409.96 470.01 420.61 480.66 420.61 493.45 C 418.48 506.24 407.82 516.89 395.04 516.89 L 395.04 516.89 Z" fill="#ffffff" fill-rule="nonzero" group-id="1,4" id="路径" node-id="28" stroke="none" target-height="46.88748" target-width="46.887512" target-x="373.725" target-y="470.00626"></path><path d="M 476.02 516.89 C 463.24 516.89 452.58 506.24 452.58 493.45 C 452.58 480.66 463.24 470.01 476.02 470.01 C 488.81 470.01 499.47 480.66 499.47 493.45 C 499.47 506.24 488.81 516.89 476.02 516.89 Z" fill="#ffffff" fill-rule="nonzero" group-id="1,4" id="路径" node-id="29" stroke="none" target-height="46.88748" target-width="46.887512" target-x="452.58124" target-y="470.00626"></path><path d="M 559.14 516.89 C 546.36 516.89 535.70 506.24 535.70 493.45 C 535.70 480.66 546.36 470.01 559.14 470.01 C 571.93 470.01 582.59 480.66 582.59 493.45 C 580.46 506.24 569.80 516.89 559.14 516.89 Z" fill="#ffffff" fill-rule="nonzero" group-id="1,4" id="路径" node-id="30" stroke="none" target-height="46.88748" target-width="46.887512" target-x="535.7" target-y="470.00626"></path></g><path d="M 563.15 463.60 L 635.17 463.60 L 635.17 491.60 L 563.15 491.60 C 549.83 491.60 537.84 503.45 537.60 516.75 L 537.60 517.15 L 537.60 596.25 C 537.60 598.69 537.99 601.12 538.76 603.49 L 538.97 604.09 L 541.18 608.73 L 529.89 615.01 L 513.16 615.01 L 512.95 614.47 C 510.84 608.87 509.69 602.98 509.61 597.00 L 509.60 596.25 L 509.60 517.15 C 509.60 488.52 533.74 464.09 562.28 463.61 L 563.15 463.60 Z" fill="#ffffff" fill-rule="nonzero" group-id="1" id="形状" node-id="31" stroke="none" target-height="151.4101" target-width="125.570496" target-x="509.59998" target-y="463.60004"></path><g node-id="74"><g node-id="81"><path d="M 501.00 455.00 L 727.00 455.00 L 727.00 681.00 L 501.00 681.00 Z" fill="#000000" fill-opacity="0" fill-rule="nonzero" group-id="1,5,12" id="矩形" node-id="33" stroke="none" target-height="226" target-width="226" target-x="501" target-y="455"></path></g><path d="M 677.56 477.60 L 563.15 477.60 C 541.96 477.60 523.60 495.96 523.60 517.15 L 523.60 596.25 C 523.60 617.44 541.96 635.80 563.15 635.80 L 567.39 635.80 C 567.39 635.80 567.39 637.21 568.80 637.21 L 584.34 654.16 C 587.16 656.99 591.40 656.99 592.81 654.16 L 606.94 638.62 L 608.35 637.21 L 677.56 637.21 C 698.75 637.21 717.11 618.85 717.11 597.66 L 717.11 517.15 C 717.11 495.96 698.75 477.60 677.56 477.60 Z" fill="url(#linearGradient-3)" fill-rule="nonzero" group-id="1,5" id="形状" node-id="34" stroke="none" target-height="179.38748" target-width="193.51251" target-x="523.6" target-y="477.6"></path><path d="M 565.98 572.24 C 557.50 572.24 551.85 565.17 551.85 556.70 C 551.85 548.23 558.91 541.16 567.39 541.16 C 575.86 541.16 582.92 548.23 582.92 556.70 C 581.51 565.17 574.45 572.24 565.98 572.24 L 565.98 572.24 Z" fill="#ffffff" fill-rule="nonzero" group-id="1,5" id="路径" node-id="35" stroke="none" target-height="31.075012" target-width="31.075012" target-x="551.85" target-y="541.1625"></path><path d="M 619.65 572.24 C 611.17 572.24 604.11 565.17 604.11 556.70 C 604.11 548.23 611.17 541.16 619.65 541.16 C 628.12 541.16 635.19 548.23 635.19 556.70 C 635.19 565.17 628.12 572.24 619.65 572.24 Z" fill="#ffffff" fill-rule="nonzero" group-id="1,5" id="路径" node-id="36" stroke="none" target-height="31.075012" target-width="31.075012" target-x="604.1125" target-y="541.1625"></path><path d="M 674.74 572.24 C 666.26 572.24 659.20 565.17 659.20 556.70 C 659.20 548.23 666.26 541.16 674.74 541.16 C 683.21 541.16 690.27 548.23 690.27 556.70 C 688.86 565.17 681.80 572.24 674.74 572.24 Z" fill="#ffffff" fill-rule="nonzero" group-id="1,5" id="路径" node-id="37" stroke="none" target-height="31.075012" target-width="31.075012" target-x="659.2" target-y="541.1625"></path></g><g node-id="75"><g node-id="82"><path d="M 304.83 695.44 C 298.00 697.42 286.66 678.66 277.66 649.08 C 268.65 619.50 268.05 600.17 274.87 598.19 C 281.70 596.21 302.28 613.36 310.16 641.11 C 318.05 668.86 311.65 693.47 304.83 695.44 Z" fill="#ffdbad" fill-rule="evenodd" group-id="1,6,13" id="椭圆形" node-id="39" stroke="none" target-height="101.20471" target-width="49.996613" target-x="268.04874" target-y="596.2149"></path></g><g node-id="83"><path d="M 280.96 612.01 C 291.44 629.33 298.17 643.24 301.18 653.73 C 304.18 664.22 305.39 678.12 304.83 695.44" fill="none" group-id="1,6,14" id="路径-42" node-id="40" stroke="#ffffff" stroke-linecap="butt" stroke-opacity="0.8" stroke-width="1" target-height="83.43146" target-width="24.429718" target-x="280.96323" target-y="612.012"></path></g><g node-id="84"><path d="M 304.83 695.44 C 308.86 692.70 301.47 682.32 287.66 666.48 C 273.85 650.63 266.25 647.88 262.22 650.63 C 258.18 653.37 260.42 668.96 272.08 682.60 C 283.74 696.23 300.79 698.19 304.83 695.44 Z" fill="#ffb76a" fill-rule="evenodd" group-id="1,6,15" id="椭圆形" node-id="41" stroke="none" target-height="50.310303" target-width="50.67569" target-x="258.18396" target-y="647.88007"></path></g><path d="M 270.32 664.08 C 274.90 671.21 279.96 677.66 285.50 683.44 C 291.04 689.21 296.97 693.21 303.28 695.44" fill="none" group-id="1,6,16" id="路径-43" node-id="42" stroke="#ffffff" stroke-linecap="butt" stroke-opacity="0.8" stroke-width="1" target-height="31.359009" target-width="32.960785" target-x="270.316" target-y="664.0845"></path></g></g></svg>