<svg width="24" height="24" viewBox="0 0 24 24" fill="none" xmlns="http://www.w3.org/2000/svg">
<g id="sy_ic05">
<path id="Vector" d="M11.996 14.8818C12.879 14.8818 13.7535 14.7079 14.5693 14.37C15.3852 14.0321 16.1265 13.5368 16.751 12.9124C17.3754 12.288 17.8707 11.5467 18.2087 10.7309C18.5466 9.91504 18.7206 9.04062 18.7206 8.15755C18.7206 7.27449 18.5466 6.40006 18.2087 5.58422C17.8707 4.76838 17.3754 4.02709 16.751 3.40269C16.1265 2.77828 15.3852 2.28299 14.5693 1.94509C13.7535 1.60719 12.879 1.4333 11.996 1.43335C10.2127 1.43345 8.50244 2.14194 7.24149 3.40296C5.98054 4.66398 5.27216 6.37425 5.27216 8.15755C5.27216 9.94086 5.98054 11.6511 7.24149 12.9121C8.50244 14.1732 10.2127 14.8817 11.996 14.8818Z" fill="#D9D9D9"/>
<path id="Vector_2" d="M5.57627 12.3843C4.59187 13.0713 3.78807 13.9861 3.2333 15.0506C2.67852 16.1152 2.3892 17.298 2.38996 18.4985C2.38996 19.0328 2.49521 19.5619 2.69972 20.0555C2.90422 20.5491 3.20396 20.9977 3.58183 21.3754C3.95969 21.7532 4.40827 22.0528 4.90195 22.2572C5.39563 22.4616 5.92474 22.5668 6.45906 22.5666H17.5338C18.6128 22.5666 19.6475 22.138 20.4104 21.3751C21.1734 20.6122 21.602 19.5774 21.602 18.4985C21.6029 17.2979 21.3136 16.1148 20.7588 15.0501C20.2041 13.9853 19.4002 13.0704 18.4157 12.3833C17.7162 13.4469 16.7633 14.3198 15.6427 14.9236C14.5221 15.5275 13.2689 15.8432 11.996 15.8424C10.7231 15.8433 9.47001 15.5277 8.3494 14.9241C7.22879 14.3204 6.27583 13.4476 5.57627 12.3843Z" fill="#D9D9D9"/>
</g>
</svg>
