<svg width="24" height="24" viewBox="0 0 24 24" fill="none" xmlns="http://www.w3.org/2000/svg">
<g id="sy_ic02h">
<path id="Vector" d="M17.0548 11.556C15.7039 11.556 12.4265 11.526 12.4265 11.526C12.4265 11.526 12.4351 8.04661 12.4351 6.93628C12.4351 4.47501 14.5935 2.47769 17.0548 2.47769C19.5161 2.47769 21.5135 4.4729 21.5135 6.93628C21.5135 9.39755 19.5161 11.556 17.0548 11.556ZM13.7967 6.91268C13.7967 6.90199 13.7989 6.89116 13.7989 6.8783L13.7967 6.91268ZM6.92407 21.6073C4.46281 21.6073 2.38599 19.5304 2.38599 17.067C2.38599 14.6057 4.46278 12.4473 6.92407 12.4473C8.27499 12.4473 11.5524 12.4774 11.5524 12.4774C11.5524 12.4774 11.5438 15.9566 11.5438 17.067C11.5438 19.5305 9.38534 21.6073 6.92407 21.6073ZM2.38601 6.93628C2.38601 4.47501 4.46281 2.39819 6.9241 2.39819C9.38539 2.39819 11.5439 4.47499 11.5439 6.93628C11.5439 8.04661 11.5525 11.526 11.5525 11.526C11.5525 11.526 8.27501 11.556 6.9241 11.556C4.46281 11.556 2.38601 9.39755 2.38601 6.93628ZM21.593 17.067C21.593 19.5282 19.5161 21.6052 17.0548 21.6052C14.5935 21.6052 12.4351 19.5282 12.4351 17.067C12.4351 15.9566 12.4265 12.4774 12.4265 12.4774C12.4265 12.4774 15.7039 12.4473 17.0548 12.4473C19.5161 12.4473 21.593 14.6057 21.593 17.067Z" fill="#FFC411"/>
</g>
</svg>
