<svg width="24" height="24" viewBox="0 0 24 24" fill="none" xmlns="http://www.w3.org/2000/svg">
<g id="sy_ic01">
<path id="Vector" d="M18.8834 22.8048C18.8469 22.8049 18.8105 22.8041 18.774 22.8024H4.764C3.8256 22.8024 3.28536 22.407 2.9976 22.0755C2.36652 21.3489 2.41728 20.3637 2.4456 20.0903V11.6639H3.9456V20.193L3.93864 20.2372C3.92076 20.3872 3.91908 20.853 4.13292 21.0952C4.17816 21.1464 4.3158 21.3023 4.76412 21.3023H18.8339L18.8514 21.3042C18.9018 21.306 19.3745 21.3144 19.6716 21.0334C19.8697 20.8461 19.9703 20.5362 19.9703 20.1125V11.6573H21.4703V20.1125C21.4703 21.1877 21.0426 21.8087 20.6838 22.1405C20.0384 22.7373 19.221 22.8049 18.8834 22.8049V22.8048ZM3.19572 12.3678H0.890402C0.738275 12.3678 0.589761 12.3215 0.464569 12.235C0.339377 12.1486 0.243426 12.0261 0.189451 11.8839C0.135475 11.7417 0.126028 11.5864 0.162361 11.4387C0.198694 11.291 0.279091 11.1578 0.392882 11.0568L11.4605 1.23434C11.5967 1.11346 11.7722 1.04627 11.9543 1.0453C12.1364 1.04433 12.3126 1.10964 12.4501 1.22906L23.6716 10.9741C23.7856 11.0731 23.867 11.2043 23.9053 11.3503C23.9435 11.4964 23.9368 11.6506 23.886 11.7928C23.8352 11.9349 23.7426 12.0585 23.6205 12.1472C23.4983 12.2359 23.3522 12.2857 23.2013 12.2901L20.7418 12.3607C20.5429 12.3664 20.35 12.2929 20.2053 12.1564C20.0607 12.0198 19.9762 11.8314 19.9705 11.6326C19.9648 11.4337 20.0383 11.2408 20.1749 11.0961C20.3114 10.9515 20.4999 10.867 20.6987 10.8613L21.2363 10.8459L11.9638 2.79325L2.8656 10.8677H3.1956C3.39451 10.8677 3.58528 10.9467 3.72593 11.0874C3.86658 11.228 3.9456 11.4188 3.9456 11.6177C3.9456 11.8166 3.86658 12.0074 3.72593 12.148C3.58528 12.2887 3.39451 12.3677 3.1956 12.3677L3.19572 12.3678ZM9.44532 22.0595C9.36222 22.0595 9.27992 22.0432 9.20314 22.0114C9.12636 21.9796 9.05659 21.933 8.99782 21.8742C8.93905 21.8154 8.89243 21.7457 8.86062 21.6689C8.82881 21.5921 8.81244 21.5098 8.81244 21.4267V16.1335C8.81244 16.0194 8.84148 15.5499 9.28164 15.1024C9.81612 14.5593 10.7221 14.2839 11.9747 14.2839C13.2084 14.2839 14.1047 14.563 14.6384 15.1135C15.089 15.5783 15.1181 16.0675 15.1172 16.1974V21.4065C15.1172 21.5743 15.0506 21.7352 14.9319 21.8539C14.8132 21.9726 14.6523 22.0393 14.4844 22.0393C14.3166 22.0393 14.1556 21.9726 14.037 21.8539C13.9183 21.7352 13.8516 21.5743 13.8516 21.4065V16.2048C13.8474 16.1776 13.8209 16.0618 13.6637 15.9343C13.4863 15.7906 13.0309 15.5495 11.9747 15.5495C10.7495 15.5495 10.3142 15.8575 10.1839 15.9899C10.12 16.0549 10.0931 16.1104 10.0818 16.1453C10.0804 16.1495 10.0792 16.1538 10.0782 16.1581V21.4267C10.0782 21.5098 10.0618 21.5921 10.03 21.6689C9.99822 21.7457 9.9516 21.8154 9.89283 21.8742C9.83406 21.933 9.76429 21.9796 9.68751 22.0114C9.61072 22.0432 9.52843 22.0595 9.44532 22.0595ZM9.60936 17.0158L9.3984 21.8436L3.82032 21.5389L3.42192 15.5857L3.53904 11.6952L1.875 11.1562L11.9298 2.03894L21.8437 10.6873L20.836 11.6483L20.414 20.3202L20.0156 21.6562L14.7656 21.8436L14.6719 18.3515L14.3437 16.0077L13.6874 15.4686L12.3984 15.2577L10.8048 15.3983L9.82032 15.5389L9.60936 17.0158Z" fill="#D9D9D9"/>
</g>
</svg>
