<svg width="24" height="24" viewBox="0 0 24 24" fill="none" xmlns="http://www.w3.org/2000/svg">
<g id="sy_ic03h">
<path id="Vector" d="M7.24097 6.61462H4.10265C3.50892 6.59766 3.01696 7.07265 3 7.66638V19.9143C3 20.508 3.49195 21 4.10265 21H7.29187C7.8856 21 8.39452 20.5589 8.39452 19.9143V7.70031C8.34363 7.10657 7.8856 6.61462 7.24097 6.61462ZM14.1283 2.00044H10.9221C10.3284 1.98348 9.83645 2.45847 9.81949 3.0522V19.9143C9.81949 20.508 10.3114 21 10.9221 21H14.1114C14.7051 21 15.214 20.5589 15.214 19.9143V3.08613C15.214 2.49239 14.6712 2.00044 14.1283 2.00044ZM20.8969 10.8726H17.7077C17.114 10.8556 16.622 11.3306 16.605 11.9243V19.9143C16.605 20.508 17.097 21 17.7077 21H20.8969C21.4906 21 21.9996 20.5589 21.9996 19.9143V11.9752C22.0165 11.3815 21.5415 10.8895 20.9478 10.8895C20.9308 10.8726 20.9139 10.8726 20.8969 10.8726Z" fill="#FFC411"/>
</g>
</svg>
