<svg width="24" height="24" viewBox="0 0 24 24" fill="none" xmlns="http://www.w3.org/2000/svg">
<g id="sy_ic04">
<path id="Vector" d="M18.1654 3.35935C15.6328 2.49996 13.974 3.37488 13.1316 4.07636C13.1289 4.07895 13.1289 4.08154 13.1263 4.08413L11.5901 5.60876L7.54476 9.62353C7.30741 9.85908 6.92139 9.85908 6.68144 9.62353C6.44409 9.38797 6.44409 9.00487 6.68144 8.76673L11.1493 4.33263C10.4321 3.62079 8.68976 2.38866 5.83377 3.35676C3.65591 4.28344 -0.879782 8.60624 4.61312 13.9541C10.106 19.3019 11.8353 20.8162 11.8353 20.8162L12.0022 21L12.1691 20.8162C12.1691 20.8162 13.8984 19.3019 19.3913 13.9541C24.879 8.60624 20.3407 4.28603 18.1654 3.35935Z" fill="#D9D9D9"/>
</g>
</svg>
