<svg width="24" height="24" viewBox="0 0 24 24" fill="none" xmlns="http://www.w3.org/2000/svg">
<g id="zhou" clip-path="url(#clip0_7_900)">
<path id="Vector" d="M12 22C6.47715 22 2 17.5229 2 12C2 6.47715 6.47715 2 12 2C17.5229 2 22 6.47715 22 12" stroke="#333333" stroke-width="2" stroke-linecap="round" stroke-linejoin="round"/>
<path id="Vector_2" d="M11.0004 8L11 12.1029L14 15" stroke="#333333" stroke-width="2" stroke-linecap="round" stroke-linejoin="round"/>
<path id="&#229;&#145;&#168;" d="M19.61 15.27H20.62V15.91H22.26V16.77H20.62V17.51H22.56V18.41H17.65V17.51H19.61V16.77H17.92V15.91H19.61V15.27ZM24.01 14.1V22.09C24.01 22.7 23.64 23.01 22.92 23.01H21.67L21.4 22.01C21.83 22.04 22.23 22.06 22.61 22.06C22.85 22.06 22.97 21.94 22.97 21.72V15.06H17.25V18.06C17.23 20.11 16.87 21.78 16.17 23.06L15.37 22.34C15.91 21.24 16.19 19.84 16.21 18.14V14.1H24.01ZM17.92 18.94H22.19V21.59H17.92V18.94ZM21.19 20.69V19.81H18.92V20.69H21.19Z" fill="#333333"/>
</g>
<defs>
<clipPath id="clip0_7_900">
<rect width="24" height="24" fill="white"/>
</clipPath>
</defs>
</svg>
